<mxfile host="app.diagrams.net" modified="2023-05-06T07:20:17.351Z" agent="Mozilla/5.0 (Windows NT 10.0; Win64; x64) AppleWebKit/537.36 (KHTML, like Gecko) Chrome/112.0.0.0 Safari/537.36" version="21.2.9" etag="UtedPW6RLqVyMuhbT69C" type="github">
  <diagram name="Страница 1" id="ElV_-vNgb1j5GL_MWq-3">
    <mxGraphModel>
      <root>
        <mxCell id="0" />
        <mxCell id="1" parent="0" />
      </root>
    </mxGraphModel>
  </diagram>
</mxfile>
